<?xml version="1.0" encoding="UTF-8" standalone="no"?><!DOCTYPE svg PUBLIC "-//W3C//DTD SVG 1.1//EN" "http://www.w3.org/Graphics/SVG/1.1/DTD/svg11.dtd"><svg width="100%" height="100%" viewBox="0 0 2084 2084" version="1.1" xmlns="http://www.w3.org/2000/svg" xmlns:xlink="http://www.w3.org/1999/xlink" xml:space="preserve" xmlns:serif="http://www.serif.com/" style="fill-rule:evenodd;clip-rule:evenodd;stroke-linecap:round;stroke-linejoin:round;stroke-miterlimit:1.5;"><path d="M1137.42,1114.56c0,0 289.064,-314.264 310.087,-395.38c21.022,-81.117 7.208,-65.196 -9.589,-105.475c-16.797,-40.279 -148.623,-129.446 -148.623,-129.446c0,0 -50.003,-43.244 -14.383,-81.503c35.619,-38.26 201.36,-249.304 201.36,-249.304c0,0 37.214,-38.974 81.504,-14.383c44.289,24.592 219.724,104.98 239.714,143.829c69.673,135.399 165.435,281.296 33.561,484.225c-113.037,173.941 -258.893,345.189 -258.893,345.189l-207.159,228.217" style="stroke:#000;stroke-width:104.17px;"/><path d="M1144.59,1108.01c0,0 -315.942,290.117 -397.058,311.139c-81.117,21.023 -65.196,7.208 -105.475,-9.588c-40.278,-16.797 -129.446,-148.624 -129.446,-148.624c0,0 -43.243,-50.002 -81.503,-14.382c-38.259,35.619 -249.303,201.36 -249.303,201.36c0,0 -38.975,37.213 -14.383,81.503c24.591,44.29 104.98,219.725 143.829,239.715c135.398,69.672 281.295,165.434 484.224,33.56c173.941,-113.037 345.189,-258.892 345.189,-258.892l227.283,-206.525" style="stroke:#000;stroke-width:104.17px;"/></svg>